<svg viewBox="0 0 100 100" xmlns="http://www.w3.org/2000/svg" fill="#FFFFFF">
  <path d="M50.87 0h7.32C66.7.81 75.34 3.34 82 8.91 88.94 14.5 93.18 23.13 93.64 32c.53 11.84-2.22 23.69-7.2 34.4-2.62 4.93-1.12 10.56-.65 15.8.41 4.62 1.33 9.22 1.18 13.87-.01 1.84-1.82 2.84-3.03 3.93H39.7c-4.71-2.15-2.91-7.62-2.55-11.6-4.72.44-9.41 1.4-14.17 1.37-3.28-.02-6.41-2.54-7.02-5.79-.93-5.65.32-11.44-.66-17.09-2.71-1.36-7.77 0-8.44-3.86 2.39-11.24 8.33-21.59 9.36-33.16 1.11-8.1 5.53-15.6 11.8-20.79C34.4 3.64 42.65.98 50.87 0M26.23 15.26c-5.14 5.71-7.2 13.37-7.71 20.88-2.39 8.97-5.81 17.64-8.59 26.5 2.99.56 7.49.11 8.55 3.81.82 5.51-.18 11.13.47 16.66.26 1.89 2.02 3.48 3.93 3.54 7.86-.15 15.6-2.11 23.47-2.08 2.1 3.73-3.84 2.97-5.94 3.59-.03 2.75-1.6 5.98-.25 8.47 4.91.56 9.88.11 14.81.23 9.71-.2 19.46.46 29.15-.37-.67-7.86-1.77-15.68-2.36-23.55-.3-4.22 2.01-7.91 3.51-11.67 3.5-8.65 5.4-17.99 5.32-27.32-.03-8.69-3.9-17.36-10.68-22.86C72.47 4.93 62.47 2.85 53 3.18c-10.02.29-20.19 4.34-26.77 12.08z"/>
  <path d="M53.35 8.37c3.37-2.26 3.34 3.35 2.54 5.34-3.36 1.83-3.02-3.33-2.54-5.34zM44.97 9.05c2.99-.82 2.95 3 3.44 4.95-2.62 3.53-4.89-2.84-3.44-4.95zM62.32 9.33c4.5-2.17 2.3 7.98-.97 5.28-.74-1.73.29-3.68.97-5.28zM71.2 12.21c4.25.42-.63 8.63-3 4.81.61-1.8 1.42-3.66 3-4.81zM39.04 18.74c-.95-2.01-4.71-5.51-.97-6.68 1.96 1.67 4.5 5.17.97 6.68zM52.17 27.95c.67-2.64 1.47-5.25 2.47-7.8 2.91.73 5.81 1.54 8.62 2.61-4.41 16.8-9.01 33.55-13.43 50.34-.46 1.15-.51 2.74-1.77 3.36-2.81-.39-5.51-1.32-8.16-2.3 3.94-15.44 8.25-30.79 12.27-46.21m4.34-4.03c-4.3 16.09-8.63 32.18-12.93 48.27 1.01.26 2.02.52 3.03.79 4.3-16.1 8.63-32.2 12.94-48.3-1.02-.26-2.03-.51-3.04-.76zM22.55 45.51c4.48-4.34 8.75-8.92 13.38-13.11 2.37 2.06 4.6 4.29 6.68 6.66-2.92 3.28-6.12 6.29-9.15 9.45 3.13 3.03 6.29 6.04 9.13 9.35-2.06 2.26-4.07 4.64-6.61 6.37-5.43-4.32-10.02-9.63-14.93-14.51-1.84-1.45.58-3.08 1.5-4.21m1.54 2.95c3.96 3.93 7.89 7.89 11.85 11.82.83-.82 1.65-1.65 2.48-2.47-3.11-3.12-6.39-6.1-9.12-9.58 3-3.09 6.07-6.11 9.11-9.17l-2.47-2.47c-3.96 3.95-7.92 7.89-11.85 11.87zM60.76 39.04c1.73-2.57 4.13-4.58 6.41-6.63 5.38 5.06 10.77 10.18 15.66 15.71-.77 2.51-3.27 3.99-4.93 5.9-3.69 3.31-6.68 7.44-10.84 10.19a27.986 27.986 0 0 1-6.25-6.23c2.26-3.75 5.96-6.33 8.86-9.55-2.95-3.14-6.42-5.84-8.91-9.39m3.96.03c2.88 3.02 6.11 5.72 8.71 9-1.59 4.08-6.19 6.11-8.42 9.86.68.84 1.43 1.63 2.17 2.42 3.91-3.98 7.83-7.95 11.86-11.82-3.88-4.06-7.9-7.98-11.87-11.95-.82.83-1.63 1.66-2.45 2.49z"/>
</svg>
