<svg xmlns="http://www.w3.org/2000/svg" viewBox="0 0 466.936 466.936">
  <g fill="#ffffff">
    <path d="M171.789 54.19h257.362v173.818H287.316v32.597h143.148c17.253 0 31.283-14.023 31.283-31.276V52.868c0-17.253-14.029-31.274-31.283-31.274H170.477c-17.253 0-31.284 14.021-31.284 31.274v54.688h32.596V54.19zM287.316 304.549h90.944l29.659-29.653c2.824-2.832 5.968-5.107 9.239-7.098H287.316v36.751z"/>
    <path d="M262.869 165.649c0-18.557-15.097-33.645-33.653-33.645H116.29c-18.559 0-33.654 15.089-33.654 33.645v46.029H98.29c6.366 0 12.311 1.592 17.683 4.218l.318-51.297h113.982v157.808h-91.311v45.662h87.761a48.731 48.731 0 0 1 1.401-14.896c2.085-8.229 6.168-16.074 12.605-22.522.016-.015.025-.03.039-.047 6.335-6.335 14.023-10.377 22.1-12.511V165.649zm-100.62 177.003c0-5.81 4.71-10.506 10.504-10.506s10.504 4.696 10.504 10.506c0 5.809-4.71 10.521-10.504 10.521-5.795-.001-10.504-4.713-10.504-10.521z"/>
    <path d="M98.29 232.05H20.301C9.104 232.05 0 241.155 0 252.344v147.765c0 11.189 9.104 20.293 20.301 20.293H98.29c11.196 0 20.301-9.104 20.301-20.293V252.344c-.001-11.189-9.105-20.294-20.301-20.294zm-73.843 24.447h69.696v132.23H24.447v-132.23zm26.229 148.051c0-4.759 3.852-8.61 8.627-8.61 4.743 0 8.595 3.852 8.595 8.61 0 4.759-3.852 8.627-8.595 8.627a8.624 8.624 0 0 1-8.627-8.627zM425.205 292.182l-94.152 94.143-38.429-38.438c-9.534-9.55-25.021-9.55-34.57 0s-9.549 25.02 0 34.57l55.713 55.721a24.437 24.437 0 0 0 34.57 0L459.773 326.75c9.551-9.549 9.551-25.021 0-34.569-9.549-9.548-25.019-9.548-34.568.001z"/>
  </g>
</svg>