<svg width="480" height="190" viewBox="0 0 480 190" xmlns="http://www.w3.org/2000/svg">
  <g>
    <g fill-rule="evenodd">
      <path d="M389.917 0H90.083l129.298 177.335c11.342 15.554 29.896 15.554 41.238 0L389.917 0z" fill="#D3D3E0"/>
      <path fill="#5DA9DD" d="M246.125 79.616a8.51 8.51 0 0 1 .047-3.05 8.647 8.647 0 0 1 1.3-2.95 7.429 7.429 0 0 1 2.301-2.149 7.705 7.705 0 0 1 2.852-1.101l31.098-5.5 6.902 39-39 6.851-5.5-31.101"/>
      <path fill="#013E7B" d="M202.973 119.315l39-6.848-5.45-31.152c-.199-1-.566-1.95-1.101-2.848a7.95 7.95 0 0 0-2.2-2.3 8.614 8.614 0 0 0-2.949-1.301c-1-.2-2.015-.215-3.05-.05l-31.098 5.5 6.848 39"/>
      <path fill="#414042" d="M221.875 55.667l-29.75 5.25-6.75 11.3 40.148-7.05a8.4 8.4 0 0 0 2.852-1.102 7.985 7.985 0 0 0 2.297-2.2 8.061 8.061 0 0 0 1.3-2.898c.2-1.035.22-2.066.051-3.101l-8.398-47.899-7.852 13.2 6.102 34.5"/>
      <path fill="#6D6E71" d="M241.672 54.167a7.69 7.69 0 0 0 1.101 2.898c.536.867 1.25 1.637 2.149 2.3.933.634 1.918 1.052 2.953 1.25 1 .235 2.016.25 3.047.052l31.101-5.45-6.851-39-39 6.848 5.5 31.102"/>
    </g>
  </g>
</svg>
