<svg width="480" height="190" xmlns="http://www.w3.org/2000/svg">
 <g>
  <title>background</title>
  <rect x="-1" y="-1" width="161.999573" height="65.333164" id="canvas_background" fill="none"/>
 </g>

 <g>
  <title>Layer 1</title>
  <g id="svg_1">
   <g fill-rule="evenodd" id="svg_2">
    <path stroke="null" d="m389.916574,0l-299.833138,0l129.297609,177.334813c11.341515,15.554596 29.896405,15.554596 41.23792,0l129.297609,-177.334813l0.000001,0z" fill="#D3D3E0" id="svg_3" stroke-width="0"/>
    <g id="svg_9">
     <path fill="#5DA9DD" d="m246.125006,79.615879c-0.16797,-1.03125 -0.15234,-2.05078 0.04688,-3.05078c0.23437,-1.03125 0.66797,-2.01563 1.30078,-2.94922c0.63281,-0.89844 1.40234,-1.61719 2.30078,-2.14844c0.89844,-0.5664 1.85156,-0.93359 2.85156,-1.10156l31.09766,-5.5l6.90234,39l-39,6.85156l-5.5,-31.10156" id="svg_4"/>
     <path fill="#013E7B" d="m202.972666,119.315099l39,-6.84766l-5.44922,-31.15234c-0.19922,-1 -0.56641,-1.94922 -1.10156,-2.84766c-0.56641,-0.90234 -1.29688,-1.66797 -2.19922,-2.30078c-0.93359,-0.63281 -1.91406,-1.06641 -2.94922,-1.30078c-1,-0.19922 -2.01562,-0.21484 -3.05078,-0.05078l-31.09766,5.5l6.84766,39" id="svg_5"/>
     <path fill="#414042" d="m221.875006,55.666659l-29.75,5.25l-6.75,11.30078l40.14844,-7.05078c1.03516,-0.19922 1.98438,-0.56641 2.85156,-1.10156c0.89844,-0.56641 1.66407,-1.29688 2.29688,-2.19922c0.63672,-0.89844 1.0664,-1.86719 1.30078,-2.89844c0.19922,-1.03515 0.21875,-2.0664 0.05078,-3.10156l-8.39844,-47.89844l-7.85156,13.19922l6.10156,34.5" id="svg_6"/>
     <path fill="#6D6E71" d="m241.671886,54.166659c0.16797,1.03516 0.53515,2 1.10156,2.89844c0.53516,0.86719 1.25,1.63672 2.14844,2.30078c0.93359,0.63281 1.91797,1.05078 2.95312,1.25c1,0.23437 2.01563,0.25 3.04688,0.05078l31.10156,-5.44922l-6.85156,-39l-39,6.84766l5.5,31.10156" id="svg_7"/>
    </g>
   </g>
  </g>
 </g>
</svg>