<svg viewBox="0 0 496 496" xmlns="http://www.w3.org/2000/svg">
  <path d="M120 208h256v16H120zm0 0M272 240h104v16H272zm0 0M120 240h104v16H120zm0 0M272 176h104v16H272zm0 0M120 176h104v16H120zm0 0M120 144h256v16H120zm0 0M424 185.367V144c0-26.473-21.527-48-48-48v16c17.648 0 32 14.352 32 32v41.367c0 14.184 4.68 27.656 13.32 38.633-8.64 10.977-13.32 24.45-13.32 38.633V304c0 17.648-14.352 32-32 32v16c26.473 0 48-21.527 48-48v-41.367c0-12.457 4.848-24.168 13.656-32.977l5.656-5.656-5.656-5.656C428.848 209.535 424 197.832 424 185.367zm0 0M88 304v-41.367c0-14.184-4.68-27.656-13.32-38.633C83.32 213.023 88 199.55 88 185.367V144c0-17.648 14.352-32 32-32V96c-26.473 0-48 21.527-48 48v41.367c0 12.457-4.848 24.168-13.656 32.977L52.687 224l5.657 5.656C67.152 238.465 72 250.168 72 262.633V304c0 26.473 21.527 48 48 48v-16c-17.648 0-32-14.352-32-32zm0 0M248 352c-17.648 0-32 14.352-32 32s14.352 32 32 32 32-14.352 32-32-14.352-32-32-32zm0 48c-8.824 0-16-7.176-16-16s7.176-16 16-16 16 7.176 16 16-7.176 16-16 16zm0 0"/>
  <path d="M248 320c-10.625 0-21.16 2.664-30.457 7.695l7.625 14.075A48.113 48.113 0 0 1 248 336c26.473 0 48 21.527 48 48 0 7.977-2 15.863-5.77 22.832l14.075 7.625C309.335 405.16 312 394.625 312 384c0-35.29-28.71-64-64-64zm0 0M248 432c-26.473 0-48-21.527-48-48 0-7.977 2-15.863 5.77-22.832l-14.075-7.625C186.665 362.84 184 373.375 184 384c0 35.29 28.71 64 64 64 10.625 0 21.16-2.664 30.457-7.695l-7.625-14.075A48.113 48.113 0 0 1 248 432zm0 0"/>
  <path d="M496 24c0-13.23-10.77-24-24-24H24C10.77 0 0 10.77 0 24v368h136v14.246l20.023 5.012a96.081 96.081 0 0 0 7.672 18.496l-10.632 17.71 31.457 31.458 17.71-10.633a95.103 95.103 0 0 0 18.497 7.672L225.754 496h44.492l5.012-20.023a96.081 96.081 0 0 0 18.496-7.672l17.71 10.632 31.458-31.457-10.633-17.71a95.103 95.103 0 0 0 7.672-18.497L360 406.246V392h136zM24 16h448c4.406 0 8 3.594 8 8v40H16V24c0-4.406 3.594-8 8-8zm320 377.754l-17.168 4.293-1.137 4.715a79.372 79.372 0 0 1-9.496 22.894l-2.535 4.137 9.121 15.191-13.793 13.793-15.191-9.12-4.137 2.534a79.48 79.48 0 0 1-22.894 9.496l-4.715 1.137L257.754 480h-19.508l-4.293-17.168-4.715-1.137a79.372 79.372 0 0 1-22.894-9.496l-4.137-2.535-15.191 9.121-13.793-13.793 9.12-15.191-2.534-4.137a79.48 79.48 0 0 1-9.496-22.894l-1.137-4.715L152 393.754v-19.508l17.168-4.293 1.137-4.715a79.372 79.372 0 0 1 9.496-22.894l2.535-4.137-9.121-15.191 13.793-13.793 15.191 9.12 4.137-2.534a79.48 79.48 0 0 1 22.894-9.496l4.715-1.137L238.246 288h19.508l4.293 17.168 4.715 1.137a79.372 79.372 0 0 1 22.894 9.496l4.137 2.535 15.191-9.121 13.793 13.793-9.12 15.191 2.534 4.137a79.48 79.48 0 0 1 9.497 22.894l1.136 4.715L344 374.246zM360 376v-14.246l-20.023-5.012a96.081 96.081 0 0 0-7.672-18.496l10.632-17.71-31.457-31.458-17.71 10.633a95.103 95.103 0 0 0-18.497-7.672L270.246 272h-44.492l-5.012 20.023a96.081 96.081 0 0 0-18.496 7.672l-17.71-10.632-31.458 31.457 10.633 17.71a95.103 95.103 0 0 0-7.672 18.497L136 361.754V376H16V80h464v296zm0 0"/>
  <path d="M32 32h16v16H32zm0 0M64 32h16v16H64zm0 0M96 32h16v16H96zm0 0"/>
</svg>
