<svg viewBox="0 0 496 496" xmlns="http://www.w3.org/2000/svg">
  <g fill="#ffffff">
    <path d="M248 304c-22.055 0-40 17.945-40 40s17.945 40 40 40 40-17.945 40-40-17.945-40-40-40zm0 64c-13.23 0-24-10.77-24-24s10.77-24 24-24 24 10.77 24 24-10.77 24-24 24zm0 0M240 32h64v16h-64zm0 0M240 64h64v16h-64zm0 0M192 96h112v16H192zm0 0M192 128h112v16H192zm0 0M192 160h112v16H192zm0 0"/>
    <path d="M496 256v-64H384v64h48v80h-96v-13.77l-19.64-6.55 9.257-18.512-30.785-30.785-18.52 9.265L269.77 256H256v-48h80v-96h96v44.687l-18.344-18.343-11.312 11.312L440 187.312l37.656-37.656-11.312-11.312L448 156.687V96H336V0H212.687L160 52.687V96H48v60.687l-18.344-18.343-11.312 11.312L56 187.312l37.656-37.656-11.312-11.312L64 156.687V112h96v96h80v48h-13.77l-6.542 19.648-18.52-9.265-30.785 30.785 9.258 18.512L160 322.23V336H64v-80h48v-64H0v64h48v129.137c-13.77 3.574-24 16-24 30.863 0 17.648 14.352 32 32 32s32-14.352 32-32c0-14.863-10.23-27.29-24-30.863V352h48v97.473c-9.29 3.312-16 12.113-16 22.527 0 13.23 10.77 24 24 24s24-10.77 24-24c0-10.414-6.71-19.215-16-22.527V352h32v13.77l19.64 6.55-9.257 18.512 30.785 30.785 18.52-9.265L226.23 432h43.532l6.543-19.648 18.52 9.265 30.784-30.785-9.257-18.512L336 365.77V352h32v97.473c-9.29 3.312-16 12.113-16 22.527 0 13.23 10.77 24 24 24s24-10.77 24-24c0-10.414-6.71-19.215-16-22.527V352h48v33.137c-13.77 3.574-24 16-24 30.863 0 17.648 14.352 32 32 32s32-14.352 32-32c0-14.863-10.23-27.29-24-30.863V256zM208 27.312V48h-20.688zM176 64h48V16h96v176H176zM16 208h80v32H16zm56 208c0 8.824-7.176 16-16 16s-16-7.176-16-16 7.176-16 16-16 16 7.176 16 16zm48 64c-4.414 0-8-3.594-8-8s3.586-8 8-8 8 3.594 8 8-3.586 8-8 8zm200-125.77l-18.352 6.122-1.351 3.527c-.402 1.023-.8 2.043-1.242 3.031l-1.551 3.465 8.648 17.297-14.472 14.473-17.297-8.649-3.461 1.55c-.985.442-1.985.84-3 1.227l-3.563 1.344L258.23 416h-20.468l-6.13-18.383-3.562-1.344a56.084 56.084 0 0 1-3-1.226l-3.46-1.55-17.298 8.648-14.472-14.473 8.648-17.297-1.55-3.465c-.45-1-.84-2.008-1.243-3.031l-1.351-3.527L176 354.23v-20.468l18.352-6.121 1.351-3.528c.402-1.023.8-2.043 1.242-3.035l1.551-3.46-8.648-17.298 14.472-14.472 17.297 8.648 3.461-1.55c.984-.442 1.984-.84 3-1.227l3.563-1.344L237.77 272h20.468l6.13 18.383 3.562 1.344c1.015.386 2.015.785 3 1.226l3.46 1.55 17.298-8.648 14.472 14.473-8.648 17.297 1.55 3.465c.45 1 .84 2.008 1.243 3.031l1.351 3.527L320 333.77zM376 480c-4.414 0-8-3.594-8-8s3.586-8 8-8 8 3.594 8 8-3.586 8-8 8zm80-64c0 8.824-7.176 16-16 16s-16-7.176-16-16 7.176-16 16-16 16 7.176 16 16zm-56-208h80v32h-80zm0 0"/>
  </g>
</svg>
